<?xml version="1.0" encoding="utf-8"?>
<!-- Svg Vector Icons : http://www.onlinewebfonts.com/icon -->
<!DOCTYPE svg PUBLIC "-//W3C//DTD SVG 1.1//EN" "http://www.w3.org/Graphics/SVG/1.1/DTD/svg11.dtd">
<svg version="1.1" xmlns="http://www.w3.org/2000/svg" xmlns:xlink="http://www.w3.org/1999/xlink" x="0px" y="0px" viewBox="0 0 1000 1000" enable-background="new 0 0 1000 1000" xml:space="preserve">
<metadata> Svg Vector Icons : http://www.onlinewebfonts.com/icon </metadata>
<g><path d="M500,990c270.6,0,490-219.4,490-490c0-270.6-219.4-490-490-490C229.4,10,10,229.4,10,500C10,770.6,229.4,990,500,990L500,990z M500,909.2C274,909.2,90.8,726,90.8,500C90.8,274,274,90.8,500,90.8C726,90.8,909.2,274,909.2,500C909.2,726,726,909.2,500,909.2z"/><path d="M468.7,329.7h62.6c7.4,0,13.4-6,13.4-13.4V80h-89.5v236.3C455.3,323.7,461.3,329.7,468.7,329.7z"/><path d="M468.7,666.3h62.6c7.4,0,13.4,6.1,13.4,13.4v236.3h-89.5V679.7C455.3,672.4,461.3,666.3,468.7,666.3z"/><path d="M332,531.3v-62.6c0-7.4-6-13.4-13.4-13.4H82.3v89.5h236.3C326,544.7,332,538.7,332,531.3z"/><path d="M667.8,531.3v-62.6c0-7.4,6-13.4,13.4-13.4h236.3v89.5H681.2C673.8,544.7,667.8,538.7,667.8,531.3z"/></g>
</svg>